<svg width="185" height="30" viewBox="0 0 185 30" fill="none" xmlns="http://www.w3.org/2000/svg">
<rect x="143" y="0.5" width="41.5" height="29" rx="3.5" fill="white" stroke="#B2BCCA"/>
<path fill-rule="evenodd" clip-rule="evenodd" d="M163.974 21.0368C162.494 22.2844 160.574 23.0376 158.476 23.0376C153.795 23.0376 150 19.288 150 14.6626C150 10.0372 153.795 6.2876 158.476 6.2876C160.574 6.2876 162.494 7.04078 163.974 8.28843C165.454 7.04078 167.374 6.2876 169.472 6.2876C174.153 6.2876 177.948 10.0372 177.948 14.6626C177.948 19.288 174.153 23.0376 169.472 23.0376C167.374 23.0376 165.454 22.2844 163.974 21.0368Z" fill="#ED0006"/>
<path fill-rule="evenodd" clip-rule="evenodd" d="M163.974 21.0372C165.796 19.501 166.952 17.2152 166.952 14.6626C166.952 12.11 165.796 9.82416 163.974 8.28803C165.454 7.04062 167.373 6.2876 169.471 6.2876C174.152 6.2876 177.947 10.0372 177.947 14.6626C177.947 19.288 174.152 23.0376 169.471 23.0376C167.373 23.0376 165.454 22.2846 163.974 21.0372Z" fill="#F9A000"/>
<path fill-rule="evenodd" clip-rule="evenodd" d="M163.974 21.0367C165.796 19.5005 166.952 17.2148 166.952 14.6625C166.952 12.1101 165.796 9.82446 163.974 8.28833C162.152 9.82446 160.996 12.1101 160.996 14.6625C160.996 17.2148 162.152 19.5005 163.974 21.0367Z" fill="#FD6020"/>
<rect x="48" y="0.5" width="41.5" height="29" rx="3.5" fill="white" stroke="#B2BCCA"/>
<path d="M70.5 29L89.5 23.25V26C89.5 27.6569 88.1569 29 86.5 29H70.5Z" fill="#FD6020"/>
<path fill-rule="evenodd" clip-rule="evenodd" d="M84.2417 11.3886C85.5483 11.3886 86.2669 11.993 86.2669 13.1347C86.3323 14.0078 85.7443 14.7465 84.9603 14.8809L86.7243 17.3657H85.3523L83.8497 14.948H83.719V17.3657H82.6084V11.3886H84.2417ZM83.7188 14.1421H84.0454C84.764 14.1421 85.0907 13.8063 85.0907 13.2019C85.0907 12.6646 84.764 12.3288 84.0454 12.3288H83.7188V14.1421ZM78.7539 17.3657H81.8898V16.3584H79.8645V14.7465H81.8245V13.7392H79.8645V12.396H81.8898V11.3886H78.7539V17.3657ZM75.4881 15.4181L73.9855 11.3886H72.8096L75.2268 17.5H75.8148L78.232 11.3886H77.0561L75.4881 15.4181ZM62.2255 14.4106C62.2255 16.0896 63.5321 17.4999 65.1654 17.4999C65.688 17.4999 66.1454 17.3656 66.6027 17.1641V15.821C66.276 16.2239 65.8187 16.4926 65.2961 16.4926C64.2508 16.4926 63.4015 15.6867 63.4015 14.6121V14.4778C63.3361 13.4033 64.1854 12.463 65.2307 12.3959C65.7534 12.3959 66.276 12.6645 66.6027 13.0675V11.7243C66.2107 11.4557 65.688 11.3885 65.2307 11.3885C63.5321 11.2542 62.2255 12.6645 62.2255 14.4106ZM60.2007 13.672C59.5474 13.4033 59.3514 13.269 59.3514 12.9332C59.4168 12.5303 59.7434 12.1945 60.1354 12.2616C60.4621 12.2616 60.7887 12.4631 61.05 12.7317L61.638 11.9258C61.1807 11.5229 60.5927 11.2542 60.0047 11.2542C59.0901 11.1871 58.3061 11.9258 58.2408 12.8661V12.9332C58.2408 13.7391 58.5675 14.2092 59.6128 14.545C59.8741 14.6122 60.1354 14.7465 60.3967 14.8808C60.5927 15.0151 60.7234 15.2166 60.7234 15.4852C60.7234 15.9554 60.3314 16.3583 59.9394 16.3583H59.8741C59.3514 16.3583 58.8941 16.0225 58.6981 15.5524L57.9795 16.2911C58.3715 17.0299 59.1554 17.4328 59.9394 17.4328C60.9847 17.5 61.834 16.6941 61.8993 15.6196V15.4181C61.834 14.6122 61.5074 14.2092 60.2007 13.672ZM56.4111 17.3657H57.5217V11.3886H56.4111V17.3657ZM51.25 11.3886H52.8833H53.2099C54.7779 11.4558 56.0192 12.799 55.9538 14.4108C55.9538 15.2838 55.5618 16.0897 54.9085 16.6942C54.3206 17.1643 53.6019 17.4329 52.8833 17.3658H51.25V11.3886ZM52.687 16.3584C53.2097 16.4256 53.7976 16.2241 54.1896 15.8883C54.5816 15.4853 54.7776 14.9481 54.7776 14.3436C54.7776 13.8064 54.5816 13.2691 54.1896 12.8662C53.7976 12.5304 53.2097 12.3289 52.687 12.396H52.3604V16.3584H52.687Z" fill="black"/>
<path fill-rule="evenodd" clip-rule="evenodd" d="M69.9349 11.25C68.3016 11.25 66.9297 12.5932 66.9297 14.3393C66.9297 16.0183 68.2363 17.4286 69.9349 17.4958C71.6335 17.5629 72.9401 16.1526 73.0055 14.4065C72.9401 12.6603 71.6335 11.25 69.9349 11.25V11.25Z" fill="#FD6020"/>
<rect x="0.5" y="0.5" width="41.5" height="29" rx="3.5" fill="white" stroke="#B2BCCA"/>
<path fill-rule="evenodd" clip-rule="evenodd" d="M13.4378 19.8228H10.8631L8.93244 12.2404C8.84081 11.8916 8.64623 11.5833 8.36002 11.438C7.64573 11.0727 6.85864 10.7821 6 10.6355V10.3436H10.1476C10.72 10.3436 11.1494 10.7821 11.2209 11.2914L12.2227 16.7608L14.7961 10.3436H17.2992L13.4378 19.8228ZM18.7303 19.8228H16.2988L18.301 10.3436H20.7326L18.7303 19.8228ZM23.8789 12.9696C23.9504 12.4591 24.3798 12.1672 24.8806 12.1672C25.6677 12.0939 26.5251 12.2405 27.2406 12.6044L27.67 10.5635C26.9544 10.2716 26.1673 10.125 25.4531 10.125C23.093 10.125 21.3758 11.438 21.3758 13.2603C21.3758 14.6466 22.5922 15.3745 23.4508 15.813C24.3798 16.2503 24.7375 16.5422 24.666 16.9794C24.666 17.6353 23.9504 17.9272 23.2362 17.9272C22.3775 17.9272 21.5189 17.7086 20.733 17.3434L20.3037 19.3856C21.1624 19.7495 22.0913 19.8961 22.9499 19.8961C25.5962 19.9681 27.2406 18.6564 27.2406 16.6875C27.2406 14.2081 23.8789 14.0628 23.8789 12.9696ZM35.7504 19.8228L33.8197 10.3436H31.7459C31.3165 10.3436 30.8872 10.6355 30.7441 11.0727L27.1689 19.8228H29.6721L30.1717 18.4377H33.2472L33.5335 19.8228H35.7504ZM32.1033 12.8962L32.8176 16.4688H30.8154L32.1033 12.8962Z" fill="#28356A"/>
<rect x="95.5" y="0.5" width="41.5" height="29" rx="3.5" fill="white" stroke="#B2BCCA"/>
<path d="M119.072 14.6322C119.072 19.2616 115.362 23.0144 110.786 23.0144C106.21 23.0144 102.5 19.2616 102.5 14.6322C102.5 10.0028 106.21 6.25 110.786 6.25C115.362 6.25 119.072 10.0028 119.072 14.6322Z" fill="#ED0006"/>
<path d="M129.821 14.6322C129.821 19.2616 126.111 23.0144 121.535 23.0144C116.959 23.0144 113.249 19.2616 113.249 14.6322C113.249 10.0028 116.959 6.25 121.535 6.25C126.111 6.25 129.821 10.0028 129.821 14.6322Z" fill="#2F80ED"/>
<path fill-rule="evenodd" clip-rule="evenodd" d="M116.161 21.0118C117.942 19.4743 119.072 17.1867 119.072 14.6322C119.072 12.0777 117.942 9.79013 116.161 8.25269C114.38 9.79013 113.25 12.0777 113.25 14.6322C113.25 17.1867 114.38 19.4743 116.161 21.0118Z" fill="#6C6BBD"/>
</svg>
