<?xml version="1.0" standalone="no"?>
<!DOCTYPE svg PUBLIC "-//W3C//DTD SVG 20010904//EN"
 "http://www.w3.org/TR/2001/REC-SVG-20010904/DTD/svg10.dtd">
<svg version="1.0" xmlns="http://www.w3.org/2000/svg"
 width="656.000000pt" height="656.000000pt" viewBox="0 0 656.000000 656.000000"
 preserveAspectRatio="xMidYMid meet">
<metadata>
Created by potrace 1.14, written by Peter Selinger 2001-2017
</metadata>
<g transform="translate(0.000000,656.000000) scale(0.100000,-0.100000)"
fill="#000000" stroke="none">
<path d="M4550 6549 c-869 -57 -1684 -306 -2424 -741 -211 -124 -266 -159
-411 -263 -201 -143 -354 -267 -360 -290 -3 -11 -4 -395 -3 -853 l3 -833 225
308 c265 362 316 424 424 509 150 119 293 190 485 241 88 24 118 26 355 31
179 3 257 1 255 -6 -2 -6 -240 -297 -529 -647 -289 -350 -526 -640 -528 -645
-2 -4 235 -296 526 -648 292 -353 533 -646 537 -653 6 -9 -50 -10 -246 -6
-204 4 -271 9 -339 25 -245 58 -444 168 -614 338 -37 38 -177 217 -310 398
l-241 330 -6 -110 c-9 -167 -47 -273 -145 -403 -61 -81 -137 -142 -239 -192
-95 -46 -180 -69 -252 -69 l-53 0 0 1108 -1 1107 -35 -40 c-97 -110 -244 -301
-287 -372 -107 -178 -169 -364 -193 -578 -40 -350 27 -681 194 -960 51 -86
204 -301 361 -510 493 -655 1151 -1277 1821 -1720 391 -259 589 -354 814 -390
278 -45 568 24 805 193 98 70 169 139 294 287 396 470 734 1048 1002 1710 58
144 165 437 165 451 0 5 -13 -15 -29 -44 -75 -135 -202 -275 -324 -355 -139
-93 -340 -161 -542 -186 -129 -16 -347 -14 -451 4 -73 13 -252 67 -326 100
-17 7 -18 -8 -18 -226 -1 -328 -21 -424 -122 -575 -111 -166 -298 -278 -500
-299 l-68 -7 0 1800 0 1800 113 20 c250 46 439 67 747 83 630 33 1018 -55
1301 -293 118 -99 236 -281 293 -452 53 -158 67 -256 73 -486 5 -194 2 -262
-22 -464 -9 -74 30 58 100 339 121 486 207 969 266 1490 38 336 16 574 -72
796 -85 214 -182 369 -312 502 -186 188 -402 303 -641 342 -98 16 -306 18
-516 4z"/>
<path d="M4115 4214 c-22 -2 -77 -9 -122 -15 l-83 -11 0 -713 0 -712 68 -30
c208 -93 467 -129 640 -88 197 47 334 187 401 410 53 178 68 495 31 675 -50
245 -189 401 -415 465 -46 14 -108 18 -270 20 -115 1 -228 1 -250 -1z"/>
</g>
</svg>
